<svg xmlns="http://www.w3.org/2000/svg" xmlns:xlink="http://www.w3.org/1999/xlink" width="247" height="46.908" viewBox="0 0 247 46.908">
  <defs>
    <clipPath id="clip-path">
      <rect id="Rectangle_16" data-name="Rectangle 16" width="34.815" height="46.267"/>
    </clipPath>
  </defs>
  <g id="CW_Red_logo_Farve" transform="translate(-27.4 -27.4)">
    <g id="Layer_1" transform="translate(27.4 27.675)">
      <g id="Group_36" data-name="Group 36">
        <g id="Group_31" data-name="Group 31">
          <g id="Group_30" data-name="Group 30">
            <g id="Group_26" data-name="Group 26" transform="translate(27.485)">
              <path id="Path_42" data-name="Path 42" d="M57.4,27.7V66.912H68.944V36.4Z" transform="translate(-57.4 -27.7)" fill="#ea0029"/>
            </g>
            <g id="Group_27" data-name="Group 27" transform="translate(13.743 1.741)">
              <path id="Path_43" data-name="Path 43" d="M52.4,31.341V67.071h2.382V29.6Z" transform="translate(-43.238 -29.6)" fill="#ea0029"/>
              <path id="Path_44" data-name="Path 44" d="M47.4,67.39h2.382V33.4L47.4,35.141Z" transform="translate(-42.819 -29.919)" fill="#ea0029"/>
              <path id="Path_45" data-name="Path 45" d="M42.4,67.7h2.382V37.1L42.4,38.932Z" transform="translate(-42.4 -30.229)" fill="#ea0029"/>
            </g>
            <g id="Group_28" data-name="Group 28" transform="translate(41.228 17.591)">
              <path id="Path_46" data-name="Path 46" d="M72.4,46.9V68.522H83.944V55.6Z" transform="translate(-72.4 -46.9)" fill="#ea0029"/>
            </g>
            <g id="Group_29" data-name="Group 29" transform="translate(0 19.24)">
              <path id="Path_47" data-name="Path 47" d="M37.4,50.532v18.14h2.382V48.7Z" transform="translate(-28.238 -48.7)" fill="#ea0029"/>
              <path id="Path_48" data-name="Path 48" d="M32.4,68.991h2.382V52.5L32.4,54.241Z" transform="translate(-27.819 -49.019)" fill="#ea0029"/>
              <path id="Path_49" data-name="Path 49" d="M27.4,69.31h2.382V56.3L27.4,58.041Z" transform="translate(-27.4 -49.337)" fill="#ea0029"/>
            </g>
          </g>
        </g>
        <g id="Group_35" data-name="Group 35" transform="translate(61.2 8.429)">
          <path id="Path_50" data-name="Path 50" d="M116.989,50.393c-3.481,0-5.589-1.924-5.589-5.772V37.2h2.84v7.329c0,2.107,1.008,3.207,2.749,3.207s2.749-1.008,2.749-3.115V37.2h2.84v7.329C122.669,48.469,120.47,50.393,116.989,50.393Z" transform="translate(-95.642 -36.925)" fill="#fff"/>
          <path id="Path_51" data-name="Path 51" d="M132.6,50.285a7.979,7.979,0,0,1-5.5-2.107l1.649-2.016a6.209,6.209,0,0,0,3.848,1.557c1.191,0,1.832-.458,1.832-1.191h0c0-.733-.458-1.1-2.565-1.649-2.565-.641-4.306-1.466-4.306-4.031h0c0-2.382,1.924-3.848,4.489-3.848a7.01,7.01,0,0,1,4.764,1.649l-1.466,2.107a5.8,5.8,0,0,0-3.39-1.283c-1.1,0-1.649.458-1.649,1.1h0c0,.825.55,1.191,2.749,1.741,2.657.641,4.123,1.649,4.123,3.848h0C137.27,48.91,135.346,50.285,132.6,50.285Z" transform="translate(-96.958 -36.908)" fill="#fff"/>
          <path id="Path_52" data-name="Path 52" d="M150.562,50.118V44.9H145.34v5.222H142.5V37.2h2.84v5.131h5.222V37.2h2.84V50.118Z" transform="translate(-98.249 -36.925)" fill="#fff"/>
          <path id="Path_53" data-name="Path 53" d="M204.287,50.118l-6.047-8.062v8.062H195.4V37.2h2.657l6.047,8.246V37.2h2.84V50.118Z" transform="translate(-102.683 -36.925)" fill="#fff"/>
          <path id="Path_54" data-name="Path 54" d="M143.637,69.318l-4.031-5.5-1.466,1.557v3.94H135.3V56.4h2.84v5.68l5.222-5.68h3.39l-5.222,5.5,5.5,7.421Z" transform="translate(-97.645 -38.535)" fill="#fff"/>
          <path id="Path_55" data-name="Path 55" d="M151.6,69.318V56.4h9.62v2.565h-6.871v2.657H160.4v2.565h-6.047v2.749h6.963V69.5H151.6Z" transform="translate(-99.012 -38.535)" fill="#fff"/>
          <path id="Path_56" data-name="Path 56" d="M181.6,69.318V56.4h2.84V69.318Z" transform="translate(-101.526 -38.535)" fill="#fff"/>
          <path id="Path_57" data-name="Path 57" d="M189.3,69.318V56.4h9.62v2.565h-6.871v2.565H198.1V64.1h-6.047v2.749h6.963V69.41H189.3Z" transform="translate(-102.172 -38.535)" fill="#fff"/>
          <path id="Path_58" data-name="Path 58" d="M204.5,69.318V56.4h2.84V66.753h6.413v2.565Z" transform="translate(-103.446 -38.535)" fill="#fff"/>
          <path id="Path_59" data-name="Path 59" d="M223.439,69.318H218.4V56.4h5.039c4.031,0,6.871,2.749,6.871,6.413h0A6.508,6.508,0,0,1,223.439,69.318Zm3.94-6.413a3.751,3.751,0,0,0-3.94-3.94h-2.2v7.787h2.2a3.728,3.728,0,0,0,3.94-3.848Z" transform="translate(-104.611 -38.535)" fill="#fff"/>
          <g id="Group_32" data-name="Group 32" transform="translate(0.548)">
            <path id="Path_60" data-name="Path 60" d="M101.579,47.711a3.824,3.824,0,0,1-3.94-4.031h0a3.99,3.99,0,0,1,3.848-4.123,4.24,4.24,0,0,1,3.207,1.466l1.832-2.2a6.917,6.917,0,0,0-4.947-1.924,6.7,6.7,0,0,0-6.78,6.78h0a6.827,6.827,0,0,0,12,4.123l-1.924-1.832A4,4,0,0,1,101.579,47.711Z" transform="translate(-94.798 -36.9)" fill="#fff"/>
          </g>
          <path id="Path_61" data-name="Path 61" d="M169.211,37.2h3.115V50.118h-2.749V41.689l-3.665,5.589h-.092l-3.665-5.589v8.429H159.5V37.2h3.023l3.39,5.5Z" transform="translate(-99.674 -36.925)" fill="#fff"/>
          <g id="Group_33" data-name="Group 33" transform="translate(75.768 0.275)">
            <path id="Path_62" data-name="Path 62" d="M182.4,37.2l-5.5,12.918h2.932l1.191-2.932h5.5l1.191,2.932h2.932l-5.5-12.918Zm-.366,7.513,1.741-4.214,1.741,4.214Z" transform="translate(-176.9 -37.2)" fill="#fff"/>
          </g>
          <g id="Group_34" data-name="Group 34" transform="translate(20.797 17.865)">
            <path id="Path_63" data-name="Path 63" d="M122.4,56.4l-5.5,12.918h2.932l1.191-2.932h5.5l1.191,2.932h2.932l-5.5-12.918Zm-.458,7.513L123.68,59.7l1.741,4.214Z" transform="translate(-116.9 -56.4)" fill="#fff"/>
          </g>
          <path id="Path_64" data-name="Path 64" d="M169.44,59.057v2.749h6.047v2.565H169.44V69.41H166.6V56.4h9.8v2.565l-6.963.092Z" transform="translate(-100.269 -38.535)" fill="#fff"/>
          <path id="Path_65" data-name="Path 65" d="M111.974,56.4l-3.023,9.07-3.023-9.07h-2.749l-2.932,9.07L97.223,56.4H94.2l4.672,12.918h2.749l2.932-8.8,2.932,8.8h2.84L115,56.4Z" transform="translate(-94.2 -38.535)" fill="#fff"/>
          <path id="Path_66" data-name="Path 66" d="M226.836,46.995l1.466-1.649-1.832-1.924-1.283,1.557-1.649-1.924a3.128,3.128,0,0,0,1.649-2.932,3.174,3.174,0,0,0-3.3-3.023,3.254,3.254,0,0,0-2.29.916,3.092,3.092,0,0,0-.825,2.29,3.95,3.95,0,0,0,1.191,2.382,4.021,4.021,0,0,0-2.565,3.756,4.294,4.294,0,0,0,4.214,4.031,5.423,5.423,0,0,0,3.573-1.649l1.191,1.374h3.3Zm-3.207-.183A2.976,2.976,0,0,1,221.614,48a1.8,1.8,0,0,1-1.741-1.741,2.5,2.5,0,0,1,1.741-2.016ZM222.072,41.5a2.18,2.18,0,0,1-.825-1.191.818.818,0,0,1,.825-1.008.942.942,0,0,1,1.008.916C223.08,40.765,222.438,41.223,222.072,41.5Z" transform="translate(-104.527 -36.917)" fill="#fff"/>
        </g>
      </g>
    </g>
    <g id="Layer_2" transform="translate(226.759 27.858)">
      <rect id="Rectangle_15" data-name="Rectangle 15" width="0.733" height="46.45" fill="#fff"/>
    </g>
    <g id="Layer_3" transform="translate(239.586 27.4)">
      <g id="Group_48" data-name="Group 48">
        <g id="Group_47" data-name="Group 47">
          <g id="Group_38" data-name="Group 38">
            <g id="Group_37" data-name="Group 37" clip-path="url(#clip-path)">
              <path id="Path_67" data-name="Path 67" d="M293.823,72.659a1.017,1.017,0,0,1-1.008,1.008H260.108a1.017,1.017,0,0,1-1.008-1.008V28.408a1.017,1.017,0,0,1,1.008-1.008h32.707a1.017,1.017,0,0,1,1.008,1.008Z" transform="translate(-259.008 -27.4)" fill="#ea0029"/>
            </g>
          </g>
          <g id="Group_40" data-name="Group 40">
            <g id="Group_39" data-name="Group 39" clip-path="url(#clip-path)">
              <path id="Path_68" data-name="Path 68" d="M281.283,40.245c-.092,0-.183-.092-.183-.275V38.229l.183-.183,6.23-2.2.183-.183v-2.29a.243.243,0,0,0-.275-.275h-6.047a.243.243,0,0,1-.275-.275V31.175a.243.243,0,0,1,.275-.275h14.109a.243.243,0,0,1,.275.275v4.672a3.944,3.944,0,0,1-4.214,4.214h-.275a4.016,4.016,0,0,1-2.657-1.283c-.366-.458-.458-.825-.733-.825h-.092l-6.5,2.29h0m10.444-2.2a2.073,2.073,0,0,0,2.107-2.107V33.374a.243.243,0,0,0-.275-.275H289.62a.243.243,0,0,0-.275.275v2.565a2.073,2.073,0,0,0,2.107,2.107Z" transform="translate(-260.853 -27.693)" fill="#fff"/>
            </g>
          </g>
          <g id="Group_42" data-name="Group 42">
            <g id="Group_41" data-name="Group 41" clip-path="url(#clip-path)">
              <path id="Path_69" data-name="Path 69" d="M281.092,52.654V44.775a.243.243,0,0,1,.275-.275h14.109a.243.243,0,0,1,.275.275v7.879a.243.243,0,0,1-.275.275H294.1a.243.243,0,0,1-.275-.275V46.882a.243.243,0,0,0-.275-.275h-3.94a.243.243,0,0,0-.275.275v4.764a.243.243,0,0,1-.275.275h-1.374a.243.243,0,0,1-.275-.275V46.882a.243.243,0,0,0-.275-.275h-4.214a.243.243,0,0,0-.275.275v5.772a.243.243,0,0,1-.275.275H281c.183-.092.092-.092.092-.275" transform="translate(-260.844 -28.833)" fill="#fff"/>
            </g>
          </g>
          <g id="Group_44" data-name="Group 44">
            <g id="Group_43" data-name="Group 43" clip-path="url(#clip-path)">
              <path id="Path_70" data-name="Path 70" d="M281.1,62.047V57.375a.243.243,0,0,1,.275-.275h14.109a.243.243,0,0,1,.275.275v4.672a3.944,3.944,0,0,1-4.214,4.214h-6.23a3.991,3.991,0,0,1-4.214-4.214m10.628,2.107a2.073,2.073,0,0,0,2.107-2.107V59.482a.243.243,0,0,0-.275-.275H283.116a.243.243,0,0,0-.275.275v2.565a2.073,2.073,0,0,0,2.107,2.107Z" transform="translate(-260.853 -29.89)" fill="#fff"/>
            </g>
          </g>
          <g id="Group_46" data-name="Group 46">
            <g id="Group_45" data-name="Group 45" clip-path="url(#clip-path)">
              <path id="Path_71" data-name="Path 71" d="M296.082,29.391a1.191,1.191,0,1,1-1.191-1.191,1.213,1.213,0,0,1,1.191,1.191Zm-.183,0a.942.942,0,0,0-1.008-.916,1,1,0,0,0-1.008.916.942.942,0,0,0,1.008.916.891.891,0,0,0,1.008-.916Zm-1.741-.183v-.275h1.283V29.3a.687.687,0,0,1-.092.458.337.337,0,0,1-.275.092c-.183,0-.275-.092-.366-.275h0c0,.092-.092.183-.366.183-.183,0-.275.092-.366.092v-.183a.948.948,0,0,1,.366-.092.243.243,0,0,0,.275-.275v-.183l-.458.092Zm.733,0v.183c0,.183.092.366.183.366s.275-.092.275-.366v-.183Z" transform="translate(-261.909 -27.467)" fill="#fff"/>
            </g>
          </g>
        </g>
      </g>
    </g>
  </g>
</svg>
